<?xml version="1.0" standalone="no"?>
<!DOCTYPE svg PUBLIC "-//W3C//DTD SVG 20010904//EN"
 "http://www.w3.org/TR/2001/REC-SVG-20010904/DTD/svg10.dtd">
<svg version="1.0" xmlns="http://www.w3.org/2000/svg"
 width="700.000000pt" height="700.000000pt" viewBox="0 0 700.000000 700.000000"
 preserveAspectRatio="xMidYMid meet">
<metadata>
Created by potrace 1.11, written by Peter Selinger 2001-2013
</metadata>
<g transform="translate(0.000000,700.000000) scale(0.100000,-0.100000)"
fill="#000000" stroke="none">
<path d="M1968 4968 c-1 -2 -2 -720 -3 -1595 l-2 -1593 161 -1 c89 0 182 -1
208 -1 25 0 50 2 55 5 4 3 8 348 8 766 0 419 0 761 1 761 1 0 345 -344 765
-765 l764 -766 279 0 c153 0 280 1 282 3 1 2 -378 385 -842 850 l-845 847 29
28 c37 36 296 280 342 323 60 56 292 273 330 310 44 42 268 253 325 305 22 21
76 72 121 114 146 138 335 315 387 364 l52 47 -278 0 -278 0 -51 -47 c-29 -27
-71 -66 -94 -88 -41 -39 -262 -247 -333 -313 -20 -19 -99 -93 -176 -166 -77
-73 -158 -150 -180 -170 -100 -94 -182 -171 -321 -302 -248 -234 -269 -254
-274 -254 -3 0 -5 300 -5 668 l-1 667 -212 3 c-116 1 -213 1 -214 0z"/>
</g>
</svg>
