<?xml version="1.0" standalone="no"?>
<!DOCTYPE svg PUBLIC "-//W3C//DTD SVG 20010904//EN"
 "http://www.w3.org/TR/2001/REC-SVG-20010904/DTD/svg10.dtd">
<svg version="1.0" xmlns="http://www.w3.org/2000/svg"
 width="700.000000pt" height="700.000000pt" viewBox="0 0 700.000000 700.000000"
 preserveAspectRatio="xMidYMid meet">
<metadata>
Created by potrace 1.11, written by Peter Selinger 2001-2013
</metadata>
<g transform="translate(0.000000,700.000000) scale(0.100000,-0.100000)"
fill="#000000" stroke="none">
<path d="M1642 5345 c-202 -44 -357 -191 -421 -398 -22 -73 -25 -100 -25 -242
0 -181 12 -241 70 -358 66 -130 179 -225 328 -274 73 -24 96 -26 231 -26 178
0 261 18 389 86 l81 43 3 277 2 277 -225 0 -225 0 0 -70 0 -70 140 0 140 0 0
-174 0 -175 -57 -21 c-131 -49 -315 -49 -446 0 -69 26 -153 100 -189 167 -75
138 -88 406 -27 569 70 186 225 274 463 261 124 -6 219 -38 324 -107 l72 -48
0 92 0 93 -77 36 c-117 55 -225 77 -368 76 -66 0 -148 -7 -183 -14z"/>
<path d="M3988 5026 c-65 -23 -125 -65 -157 -108 l-31 -42 0 72 0 72 -80 0
-80 0 0 -475 0 -475 79 0 79 0 4 308 c5 346 8 365 79 446 54 61 105 79 206 74
43 -3 86 -8 96 -12 15 -7 17 -1 17 73 l0 81 -87 0 c-49 -1 -104 -7 -125 -14z"/>
<path d="M4543 5018 c-88 -32 -147 -78 -193 -150 -136 -210 -106 -571 59 -721
86 -78 205 -115 336 -104 182 16 305 113 366 288 27 79 37 246 20 344 -26 150
-110 268 -230 328 -61 30 -74 32 -181 35 -99 2 -124 -1 -177 -20z m242 -119
c27 -7 57 -29 92 -64 69 -71 94 -148 95 -291 1 -206 -74 -332 -217 -364 -126
-28 -243 41 -296 176 -30 78 -34 268 -6 356 47 152 182 228 332 187z"/>
<path d="M2570 4853 c38 -93 125 -305 194 -472 l124 -303 -33 -80 c-60 -141
-94 -168 -212 -168 l-53 0 0 -65 0 -65 81 0 c44 0 100 5 124 11 66 17 128 77
169 162 27 56 328 798 445 1095 l21 52 -83 0 -83 0 -148 -370 c-82 -204 -150
-370 -151 -368 -2 2 -69 168 -150 371 l-147 367 -83 0 -84 0 69 -167z"/>
<path d="M773 3055 c-127 -35 -225 -117 -260 -218 -26 -76 -24 -197 6 -262 54
-120 140 -170 385 -221 243 -51 316 -114 304 -260 -18 -213 -338 -269 -650
-114 l-58 29 0 -89 0 -89 83 -26 c45 -15 132 -34 194 -43 193 -28 379 5 489
88 165 124 165 428 0 554 -63 47 -141 76 -303 112 -245 54 -293 88 -293 207 0
83 32 137 103 175 49 26 59 27 187 27 137 0 175 -8 333 -70 16 -7 18 -1 15 76
l-3 83 -90 24 c-116 31 -359 40 -442 17z"/>
<path d="M1970 2749 c-185 -28 -323 -155 -369 -344 -16 -64 -16 -235 -1 -300
60 -248 272 -384 542 -348 46 6 109 21 141 33 l57 21 0 70 c0 38 -1 69 -3 69
-2 0 -30 -11 -63 -24 -76 -31 -183 -46 -257 -36 -160 22 -251 134 -264 325
-17 251 104 405 318 405 78 0 172 -21 231 -51 l38 -19 0 73 c0 69 -2 75 -25
85 -82 37 -241 56 -345 41z"/>
<path d="M2901 2749 c-134 -23 -245 -109 -301 -232 -95 -210 -55 -516 86 -652
152 -148 440 -151 597 -6 93 86 141 220 141 396 0 249 -96 412 -277 475 -66
23 -176 31 -246 19z m196 -153 c94 -44 150 -149 160 -303 13 -185 -52 -335
-166 -386 -95 -42 -226 -16 -287 56 -70 82 -102 227 -84 370 17 132 74 226
165 268 58 27 147 25 212 -5z"/>
<path d="M4073 2750 c-75 -11 -136 -44 -188 -102 l-45 -50 0 66 0 66 -80 0
-80 0 0 -660 0 -660 80 0 80 0 0 251 0 252 31 -39 c67 -85 146 -118 279 -118
71 0 94 4 143 26 105 49 186 157 224 300 22 84 22 262 0 345 -61 230 -233 355
-444 323z m132 -144 c50 -21 111 -90 137 -154 20 -50 22 -75 22 -197 0 -157
-15 -215 -75 -288 -119 -145 -349 -96 -419 89 -28 75 -38 227 -20 316 31 162
119 248 253 248 37 0 83 -6 102 -14z"/>
<path d="M5105 2749 c-223 -34 -374 -233 -375 -495 -1 -290 162 -474 441 -500
94 -8 229 9 331 43 l78 26 0 73 c0 41 -2 74 -5 74 -3 0 -24 -9 -46 -21 -118
-60 -334 -80 -439 -40 -68 26 -126 80 -157 148 -24 51 -45 148 -35 158 3 3
167 5 364 5 l358 0 0 33 c0 73 -20 196 -40 250 -42 112 -136 201 -245 232 -69
20 -159 25 -230 14z m213 -155 c78 -39 122 -105 137 -206 l7 -48 -281 0 c-320
0 -296 -8 -264 89 18 58 79 133 127 158 49 25 76 31 152 32 57 1 80 -4 122
-25z"/>
</g>
</svg>
