<?xml version="1.0" standalone="no"?>
<!DOCTYPE svg PUBLIC "-//W3C//DTD SVG 20010904//EN"
 "http://www.w3.org/TR/2001/REC-SVG-20010904/DTD/svg10.dtd">
<svg version="1.0" xmlns="http://www.w3.org/2000/svg"
 width="700.000000pt" height="700.000000pt" viewBox="0 0 700.000000 700.000000"
 preserveAspectRatio="xMidYMid meet">
<metadata>
Created by potrace 1.11, written by Peter Selinger 2001-2013
</metadata>
<g transform="translate(0.000000,700.000000) scale(0.100000,-0.100000)"
fill="#000000" stroke="none">
<path d="M2960 5640 l0 -120 95 0 95 0 0 120 0 120 -95 0 -95 0 0 -120z"/>
<path d="M4880 5640 l0 -120 95 0 96 0 -3 118 -3 117 -92 3 -93 3 0 -121z"/>
<path d="M1352 4928 l3 -763 215 -3 c118 -2 274 2 345 8 478 38 700 252 722
695 11 225 -29 407 -119 542 -71 106 -167 176 -308 225 -133 46 -172 50 -523
55 l-337 5 2 -764z m730 560 c189 -63 285 -176 323 -383 21 -108 15 -316 -10
-410 -50 -183 -174 -297 -371 -341 -41 -9 -148 -17 -266 -21 l-198 -6 0 598 0
597 223 -4 c206 -4 228 -6 299 -30z"/>
<path d="M3825 5327 c-169 -43 -289 -176 -342 -377 -24 -90 -24 -310 0 -400
41 -154 137 -284 251 -340 188 -93 424 -43 537 114 l29 39 0 -74 c-1 -237 -90
-364 -281 -399 -110 -20 -272 6 -381 61 l-38 19 0 -89 c0 -55 4 -92 11 -97 72
-44 389 -69 511 -40 182 43 288 146 340 332 21 76 22 100 26 657 l3 577 -95 0
-96 0 0 -80 0 -80 -67 69 c-53 53 -82 73 -128 90 -74 28 -208 36 -280 18z
m255 -163 c146 -43 233 -230 216 -466 -12 -172 -73 -288 -181 -343 -50 -26
-70 -30 -134 -30 -101 0 -156 22 -215 85 -84 89 -111 191 -103 377 5 133 22
197 68 267 72 108 209 152 349 110z"/>
<path d="M2960 4735 l0 -575 95 0 95 0 0 575 0 575 -95 0 -95 0 0 -575z"/>
<path d="M4880 4735 l0 -576 93 3 92 3 3 573 2 572 -95 0 -95 0 0 -575z"/>
<path d="M2330 2945 l0 -115 95 0 95 0 0 115 0 115 -95 0 -95 0 0 -115z"/>
<path d="M1380 3023 c-202 -26 -336 -107 -402 -241 -32 -64 -33 -70 -33 -192
0 -118 2 -128 28 -180 35 -68 58 -94 122 -135 71 -46 176 -81 345 -116 176
-37 248 -67 300 -126 88 -100 74 -257 -31 -346 -62 -54 -115 -69 -259 -74
-110 -4 -137 -1 -223 21 -54 14 -140 45 -193 70 l-95 45 3 -107 3 -107 70 -23
c159 -54 240 -66 420 -66 188 0 251 11 356 65 158 79 226 209 217 409 -6 129
-37 198 -123 279 -82 76 -162 109 -378 155 -277 60 -334 92 -357 199 -21 102
21 203 104 252 50 29 157 55 232 55 109 0 264 -39 417 -105 16 -6 17 1 17 93
l0 100 -48 16 c-123 41 -389 73 -492 59z"/>
<path d="M3163 2626 c-205 -66 -333 -286 -333 -571 0 -260 99 -454 278 -542
75 -37 78 -38 191 -38 156 0 209 21 304 116 l67 69 0 -44 c0 -74 -20 -199 -40
-243 -27 -61 -93 -127 -153 -153 -109 -48 -314 -36 -445 25 -30 14 -56 25 -58
25 -2 0 -4 -40 -4 -89 l0 -89 48 -17 c26 -9 90 -22 142 -30 374 -57 609 69
674 362 14 61 16 156 16 642 l0 571 -90 0 -90 0 0 -87 c-1 -80 -2 -86 -16 -68
-43 58 -106 111 -164 139 -59 28 -76 31 -175 33 -72 2 -124 -2 -152 -11z m292
-159 c59 -17 146 -107 173 -180 41 -109 48 -309 14 -422 -18 -59 -61 -132 -96
-163 -60 -53 -94 -65 -187 -70 -109 -5 -169 18 -234 90 -54 60 -81 129 -96
245 -22 171 17 337 98 424 85 91 191 115 328 76z"/>
<path d="M4663 2626 c-66 -22 -124 -60 -180 -119 l-52 -55 -3 82 -3 81 -92 3
-93 3 0 -576 0 -575 95 0 94 0 3 388 c3 372 4 389 25 434 49 106 147 175 264
185 112 11 207 -34 248 -116 35 -68 41 -144 41 -523 l0 -368 96 0 96 0 -4 418
c-5 450 -6 459 -63 572 -29 57 -102 125 -163 153 -59 27 -243 35 -309 13z"/>
<path d="M2330 2045 l0 -575 95 0 95 0 -2 573 -3 572 -92 3 -93 3 0 -576z"/>
</g>
</svg>
