<?xml version="1.0" standalone="no"?>
<!DOCTYPE svg PUBLIC "-//W3C//DTD SVG 20010904//EN"
 "http://www.w3.org/TR/2001/REC-SVG-20010904/DTD/svg10.dtd">
<svg version="1.0" xmlns="http://www.w3.org/2000/svg"
 width="700.000000pt" height="700.000000pt" viewBox="0 0 700.000000 700.000000"
 preserveAspectRatio="xMidYMid meet">
<metadata>
Created by potrace 1.11, written by Peter Selinger 2001-2013
</metadata>
<g transform="translate(0.000000,700.000000) scale(0.100000,-0.100000)"
fill="#000000" stroke="none">
<path d="M1232 4928 l3 -763 290 0 c322 1 410 10 550 56 120 40 188 80 261
155 71 72 123 167 156 289 19 69 22 106 22 265 0 159 -3 196 -22 265 -54 197
-151 321 -315 399 -168 81 -269 96 -655 96 l-292 0 2 -762z m733 559 c232 -77
335 -248 335 -557 0 -332 -126 -516 -396 -576 -41 -9 -148 -17 -266 -21 l-198
-6 0 598 0 597 223 -4 c207 -4 227 -6 302 -31z"/>
<path d="M3203 5329 c-205 -34 -358 -180 -419 -400 -14 -48 -18 -100 -18 -204
0 -126 3 -148 27 -218 76 -218 231 -338 478 -368 135 -16 309 8 455 62 l54 20
0 89 0 89 -64 -29 c-35 -16 -100 -38 -143 -49 -263 -66 -462 -12 -557 152 -26
44 -56 147 -56 191 l0 26 430 0 430 0 0 103 c0 177 -42 295 -142 402 -110 118
-281 166 -475 134z m264 -182 c90 -46 146 -130 161 -246 l9 -61 -339 0 -338 0
6 28 c16 73 27 109 41 135 20 39 79 103 117 127 91 55 250 63 343 17z"/>
<path d="M4415 5327 c-168 -43 -289 -177 -342 -377 -23 -88 -23 -299 0 -395
65 -267 274 -423 518 -387 117 17 208 70 272 157 l29 40 -5 -110 c-10 -223
-92 -331 -278 -365 -110 -20 -272 6 -381 61 l-38 19 0 -89 c0 -55 4 -92 11
-97 72 -44 389 -69 512 -40 98 23 170 62 226 121 59 62 85 112 114 213 20 74
21 101 25 655 l3 577 -95 0 -96 0 0 -79 0 -79 -67 67 c-52 52 -82 73 -128 90
-74 28 -208 36 -280 18z m258 -163 c133 -45 217 -204 217 -414 0 -268 -117
-424 -320 -425 -95 0 -153 22 -207 78 -87 89 -117 192 -111 377 5 139 23 205
77 283 69 101 217 144 344 101z"/>
<path d="M2330 2945 l0 -115 95 0 95 0 0 115 0 115 -95 0 -95 0 0 -115z"/>
<path d="M1380 3023 c-202 -26 -336 -107 -402 -241 -32 -64 -33 -70 -33 -192
0 -118 2 -128 28 -180 35 -68 58 -94 122 -135 71 -46 176 -81 345 -116 176
-37 248 -67 300 -126 88 -100 74 -257 -31 -346 -62 -54 -115 -69 -259 -74
-110 -4 -137 -1 -223 21 -54 14 -140 45 -193 70 l-95 45 3 -107 3 -107 70 -23
c159 -54 240 -66 420 -66 188 0 251 11 356 65 158 79 226 209 217 409 -6 129
-37 198 -123 279 -82 76 -162 109 -378 155 -277 60 -334 92 -357 199 -21 102
21 203 104 252 50 29 157 55 232 55 109 0 264 -39 417 -105 16 -6 17 1 17 93
l0 100 -48 16 c-123 41 -389 73 -492 59z"/>
<path d="M3163 2626 c-205 -66 -333 -286 -333 -571 0 -260 99 -454 278 -542
75 -37 78 -38 191 -38 156 0 209 21 304 116 l67 69 0 -44 c0 -74 -20 -199 -40
-243 -27 -61 -93 -127 -153 -153 -109 -48 -314 -36 -445 25 -30 14 -56 25 -58
25 -2 0 -4 -40 -4 -89 l0 -89 48 -17 c26 -9 90 -22 142 -30 374 -57 609 69
674 362 14 61 16 156 16 642 l0 571 -90 0 -90 0 0 -87 c-1 -80 -2 -86 -16 -68
-43 58 -106 111 -164 139 -59 28 -76 31 -175 33 -72 2 -124 -2 -152 -11z m292
-159 c59 -17 146 -107 173 -180 41 -109 48 -309 14 -422 -18 -59 -61 -132 -96
-163 -60 -53 -94 -65 -187 -70 -109 -5 -169 18 -234 90 -54 60 -81 129 -96
245 -22 171 17 337 98 424 85 91 191 115 328 76z"/>
<path d="M4663 2626 c-66 -22 -124 -60 -180 -119 l-52 -55 -3 82 -3 81 -92 3
-93 3 0 -576 0 -575 95 0 94 0 3 388 c3 372 4 389 25 434 49 106 147 175 264
185 112 11 207 -34 248 -116 35 -68 41 -144 41 -523 l0 -368 96 0 96 0 -4 418
c-5 450 -6 459 -63 572 -29 57 -102 125 -163 153 -59 27 -243 35 -309 13z"/>
<path d="M2330 2045 l0 -575 95 0 95 0 -2 573 -3 572 -92 3 -93 3 0 -576z"/>
</g>
</svg>
